Coordinates
version=1
nRows=12
nColumns=42
inDegrees=yes

Units are S.I. units (second, meters, Newtons, ...)
If the header above contains a line with 'inDegrees', this indicates whether rotational values are in degrees (yes) or radians (no).

endheader
time	pelvis_tilt	pelvis_list	pelvis_rotation	pelvis_tx	pelvis_ty	pelvis_tz	hip_flexion_r	hip_adduction_r	hip_rotation_r	knee_angle_r	knee_adduction_r	knee_angle_r_beta	ankle_angle_r	subtalar_angle_r	mtp_angle_r	hip_flexion_l	hip_adduction_l	hip_rotation_l	knee_angle_l	knee_adduction_l	knee_angle_l_beta	ankle_angle_l	subtalar_angle_l	mtp_angle_l	lumbar_extension	lumbar_bending	lumbar_rotation	arm_flex_r	arm_add_r	arm_rot_r	elbow_flex_r	pro_sup_r	wrist_flex_r	wrist_dev_r	arm_flex_l	arm_add_l	arm_rot_l	elbow_flex_l	pro_sup_l	wrist_flex_l	wrist_dev_l
     13.16500000	     -8.08221187	     -1.75113233	      0.37289897	      0.76522675	      0.96100790	      0.48015638	     -5.01074317	      1.24381410	     -4.20316783	     14.01011865	      6.25096954	      0.24452270	      1.66533790	      3.20001266	    -20.34682354	     30.22250239	     -4.85964139	    -10.96836659	      6.44125650	      6.43431604	      0.11242113	      1.62266917	      7.37686302	     -9.69551695	      0.00000000	      0.00000000	      0.00000000	      0.00000000	     -6.92316942	      0.00000000	     72.50233411	     90.00000001	      0.00000000	      0.00000000	      0.00000000	     -6.92316942	      0.00000000	     72.50233411	     90.00000001	      0.00000000	      0.00000000
     13.17000000	     -7.93322820	     -1.75902252	      0.25535431	      0.76563833	      0.96044664	      0.47953447	     -5.28108834	      1.20702987	     -4.05047753	     14.54271589	      6.25096954	      0.25381827	      1.53880544	      3.09566862	    -20.58510755	     30.06814501	     -4.79104893	    -10.64303728	      7.15649945	      6.43431604	      0.12490448	      1.53203209	      7.10572410	     -9.72320346	      0.00000000	      0.00000000	      0.00000000	      0.00000000	     -6.92995164	      0.00000000	     72.50642351	     90.00000001	      0.00000000	      0.00000000	      0.00000000	     -6.92995164	      0.00000000	     72.50642351	     90.00000001	      0.00000000	      0.00000000
     13.17500000	     -8.00800288	     -1.74748919	      0.36612353	      0.76635560	      0.95947967	      0.47871389	     -5.28254059	      1.14712653	     -4.35254436	     15.20170161	      6.25096954	      0.26531975	      1.34983794	      3.24653447	    -21.51745026	     30.22333378	     -4.58155253	    -10.14582851	      7.99485591	      6.43431604	      0.13953656	      1.41001826	      7.03526786	    -10.10874509	      0.00000000	      0.00000000	      0.00000000	      0.00000000	     -6.95100318	      0.00000000	     72.51909811	     90.00000001	      0.00000000	      0.00000000	      0.00000000	     -6.95100318	      0.00000000	     72.51909811	     90.00000001	      0.00000000	      0.00000000
     13.18000000	     -8.00471984	     -1.67372291	      0.28910752	      0.76715385	      0.95866849	      0.47801267	     -5.32865580	      0.97794836	     -4.49614683	     15.90486142	      6.25096954	      0.27759220	      0.98181281	      3.38891754	    -23.12141956	     30.16026135	     -4.40721881	     -9.86629400	      8.58947082	      6.43431604	      0.14991455	      0.81096722	      6.76902076	    -11.53787224	      0.00000000	      0.00000000	      0.00000000	      0.00000000	     -7.01370724	      0.00000000	     72.55665214	     90.00000001	      0.00000000	      0.00000000	      0.00000000	     -7.01370724	      0.00000000	     72.55665214	     90.00000001	      0.00000000	      0.00000000
     13.18500000	     -7.88598885	     -1.65484563	      0.18896317	      0.76780112	      0.95807940	      0.47732176	     -5.52256430	      0.90413151	     -4.39711563	     16.52137099	      6.25096954	      0.28835232	      0.77127274	      3.23621679	    -23.22638230	     29.95443037	     -4.29066670	     -9.58513325	      9.12698180	      6.43431604	      0.15929588	      0.53951639	      6.62451806	    -11.61557450	      0.00000000	      0.00000000	      0.00000000	      0.00000000	     -7.02033488	      0.00000000	     72.56060603	     90.00000001	      0.00000000	      0.00000000	      0.00000000	     -7.02033488	      0.00000000	     72.56060603	     90.00000001	      0.00000000	      0.00000000
     13.19000000	     -7.91573164	     -1.54198772	      0.16737030	      0.76866459	      0.95723962	      0.47660846	     -5.45717375	      0.68939649	     -4.67965916	     17.39036959	      6.25096954	      0.30351921	      0.55649436	      3.56575130	    -24.39235759	     29.87711271	     -4.04048006	     -9.28188161	      9.54633915	      6.43431604	      0.16661505	     -0.08949025	      6.26891458	    -12.58737816	      0.00000000	      0.00000000	      0.00000000	      0.00000000	     -7.06783811	      0.00000000	     72.58885688	     90.00000001	      0.00000000	      0.00000000	      0.00000000	     -7.06783811	      0.00000000	     72.58885688	     90.00000001	      0.00000000	      0.00000000
     13.19500000	     -7.87560375	     -1.44131894	      0.13973683	      0.76958561	      0.95663036	      0.47606819	     -5.55689205	      0.53659664	     -4.69060368	     18.05380630	      6.25096954	      0.31509836	      0.29287098	      3.44229236	    -24.51755503	     29.69360391	     -3.83019701	     -9.08713229	      9.88957136	      6.43431604	      0.17260558	     -0.61557097	      6.17712884	    -12.61358042	      0.00000000	      0.00000000	      0.00000000	      0.00000000	     -7.07529603	      0.00000000	     72.59327737	     90.00000001	      0.00000000	      0.00000000	      0.00000000	     -7.07529603	      0.00000000	     72.59327737	     90.00000001	      0.00000000	      0.00000000
     13.20000000	     -7.79853086	     -1.39700162	      0.05669173	      0.77032752	      0.95611952	      0.47543211	     -5.60791930	      0.42401258	     -4.66904418	     18.82778397	      6.25096954	      0.32860682	     -0.02738565	      3.34767270	    -24.67226829	     29.48684974	     -3.70082512	     -8.94030466	     10.22762415	      6.43431604	      0.17850572	     -1.34316054	      6.11071599	    -12.56559096	      0.00000000	      0.00000000	      0.00000000	      0.00000000	     -7.08019644	      0.00000000	     72.59617977	     90.00000001	      0.00000000	      0.00000000	      0.00000000	     -7.08019644	      0.00000000	     72.59617977	     90.00000001	      0.00000000	      0.00000000
     13.20500000	     -7.96989987	     -1.07141059	      0.08050365	      0.77124445	      0.95518206	      0.47471675	     -5.16566859	     -0.04548191	     -5.20981268	     20.13375824	      6.25096954	      0.35140037	     -0.24017312	      3.79762102	    -25.94501507	     29.38773492	     -3.20521330	     -8.42451586	     10.12415436	      6.43431604	      0.17669983	     -3.25338718	      4.55654670	    -14.85268680	      0.00000000	      0.00000000	      0.00000000	      0.00000000	     -7.18868145	      0.00000000	     72.66002425	     90.00000001	      0.00000000	      0.00000000	      0.00000000	     -7.18868145	      0.00000000	     72.66002425	     90.00000001	      0.00000000	      0.00000000
     13.21000000	     -7.88075848	     -1.01829795	      0.05831101	      0.77189661	      0.95468842	      0.47414129	     -5.16251366	     -0.13630499	     -5.15460663	     21.04036098	      6.25096954	      0.36722357	     -0.67693702	      3.64857723	    -26.07128036	     29.23745553	     -3.08288433	     -8.30519531	     10.57280572	      6.43431604	      0.18453027	     -4.14580163	      4.56293810	    -14.68692937	      0.00000000	      0.00000000	      0.00000000	      0.00000000	     -7.19405027	      0.00000000	     72.66316096	     90.00000001	      0.00000000	      0.00000000	      0.00000000	     -7.19405027	      0.00000000	     72.66316096	     90.00000001	      0.00000000	      0.00000000
     13.21500000	     -8.22200885	     -0.78191919	     -0.03127102	      0.77270592	      0.95356640	      0.47353871	     -4.42166989	     -0.49839925	     -5.39813034	     22.50202410	      6.25096954	      0.39273441	     -0.98617572	      3.85759212	    -26.94807640	     29.49162761	     -2.78005917	     -8.12762534	     10.93462698	      6.43431604	      0.19084524	     -5.26829839	      3.74163944	    -14.94459053	      0.00000000	      0.00000000	      0.00000000	      0.00000000	     -7.22762601	      0.00000000	     72.68273278	     90.00000001	      0.00000000	      0.00000000	      0.00000000	     -7.22762601	      0.00000000	     72.68273278	     90.00000001	      0.00000000	      0.00000000
     13.22000000	     -8.27195312	     -0.62373236	     -0.06834464	      0.77333922	      0.95292197	      0.47295248	     -4.03238000	     -0.74002539	     -5.54636368	     23.82144491	      6.25096954	      0.41576265	     -1.44338857	      3.76529520	    -27.24672583	     29.49189956	     -2.55774542	     -8.01367724	     11.42549470	      6.43431604	      0.19941250	     -6.21812414	      3.05661000	    -15.21315832	      0.00000000	      0.00000000	      0.00000000	      0.00000000	     -7.25975875	      0.00000000	     72.70138785	     90.00000001	      0.00000000	      0.00000000	      0.00000000	     -7.25975875	      0.00000000	     72.70138785	     90.00000001	      0.00000000	      0.00000000
